Coordinates
version=1
nRows=12
nColumns=24
inDegrees=yes

Units are S.I. units (second, meters, Newtons, ...)
Angles are in degrees.

endheader
time	pelvis_tilt	pelvis_list	pelvis_rotation	pelvis_tx	pelvis_ty	pelvis_tz	hip_flexion_r	hip_adduction_r	hip_rotation_r	knee_angle_r	ankle_angle_r	subtalar_angle_r	mtp_angle_r	hip_flexion_l	hip_adduction_l	hip_rotation_l	knee_angle_l	ankle_angle_l	subtalar_angle_l	mtp_angle_l	lumbar_extension	lumbar_bending	lumbar_rotation
      0.47100000	      1.42066889	      1.87827159	      3.51040952	     -0.78498269	      1.00990154	      0.26912869	     18.09531448	     -1.69070167	     -4.51572454	     -1.03003862	      3.03539947	    -14.38960603	      7.06244155	    -13.61221973	      2.57637015	      6.31820888	    -10.14666340	     11.95159669	    -13.18758317	      2.28422436	     -9.26923831	     -2.96509555	     -1.29280147
      0.47516667	      1.52769225	      1.85579352	      3.51461497	     -0.77909624	      1.00954151	      0.26954766	     17.97423745	     -1.61351319	     -4.27317327	     -1.28247337	      3.08932381	    -14.46181816	      7.07270505	    -13.75857611	      2.51255525	      6.17117454	    -10.81002887	     12.04938928	    -12.95536002	      2.32757292	     -9.34067446	     -2.90491251	     -1.30288581
      0.47933333	      1.59300158	      1.81384575	      3.49921039	     -0.77312061	      1.00914884	      0.26999903	     17.89523716	     -1.50742117	     -3.99874367	     -1.58984486	      3.06550853	    -14.59808748	      7.09754864	    -13.83205883	      2.43148659	      5.96316292	    -11.53933486	     12.15215157	    -12.65326779	      2.40093987	     -9.35118220	     -2.82060602	     -1.28238317
      0.48350000	      1.66413183	      1.76911638	      3.46370604	     -0.76707687	      1.00879093	      0.27046871	     17.80121500	     -1.38987906	     -3.69626876	     -1.93619373	      3.01218618	    -14.73016571	      7.13510372	    -13.89709498	      2.35148486	      5.73561657	    -12.30033580	     12.21651130	    -12.35683071	      2.49593069	     -9.35444139	     -2.73194775	     -1.24788745
      0.48766667	      1.73062049	      1.70884439	      3.41910620	     -0.76097179	      1.00844908	      0.27096514	     17.70307277	     -1.24868392	     -3.38060905	     -2.31327984	      2.88113898	    -14.89964338	      7.19254271	    -13.92404381	      2.25050630	      5.44884795	    -13.13130579	     12.26427262	    -11.99603044	      2.63804233	     -9.34671009	     -2.62175433	     -1.18840120
      0.49183333	      1.79539513	      1.64647632	      3.36388832	     -0.75482491	      1.00812901	      0.27147090	     17.60207120	     -1.10038813	     -3.06262038	     -2.72524261	      2.71390226	    -15.06450564	      7.27012821	    -13.91972846	      2.14953921	      5.15170575	    -14.02241573	     12.28400418	    -11.62608886	      2.82920593	     -9.32504009	     -2.51071657	     -1.12503876
      0.49600000	      1.86258139	      1.57518999	      3.30693898	     -0.74864657	      1.00784073	      0.27199939	     17.48508095	     -0.93777833	     -2.73258511	     -3.14789354	      2.48537962	    -15.25362413	      7.38069541	    -13.88227233	      2.03173864	      4.80992308	    -14.97998684	     12.27525096	    -11.21201539	      3.11217797	     -9.30645027	     -2.38569063	     -1.04022407
      0.50016667	      1.91722344	      1.52012235	      3.21088149	     -0.74245772	      1.00754336	      0.27257583	     17.39036061	     -0.78117674	     -2.34957467	     -3.61494231	      2.28021569	    -15.39668931	      7.46431373	    -13.80668312	      1.94358538	      4.45593498	    -15.98901109	     12.19413801	    -10.87766029	      3.33197778	     -9.27038250	     -2.29405849	     -0.97289628
      0.50433333	      1.97724922	      1.44026292	      3.15494983	     -0.73622600	      1.00729977	      0.27314179	     17.26276931	     -0.60473132	     -2.03921352	     -4.06085027	      1.96939373	    -15.58028095	      7.57049574	    -13.68214806	      1.80352639	      4.07143104	    -17.09117627	     12.10126863	    -10.40601202	      3.63692454	     -9.22963507	     -2.16676041	     -0.86341416
      0.50850000	      2.02835616	      1.36687423	      3.07384259	     -0.73000093	      1.00705684	      0.27373125	     17.15336139	     -0.42984223	     -1.71424896	     -4.54087540	      1.65443508	    -15.73467891	      7.68005266	    -13.50527756	      1.67385041	      3.64778207	    -18.27497759	     11.95493760	     -9.96101604	      3.97824999	     -9.17653908	     -2.04548334	     -0.77281537
      0.51266667	      2.08111804	      1.28250289	      3.00824431	     -0.72377197	      1.00684713	      0.27433265	     17.03476500	     -0.24564685	     -1.43136012	     -5.02634588	      1.30131886	    -15.88603219	      7.79846080	    -13.28492098	      1.51799824	      3.21624604	    -19.53544055	     11.76644136	     -9.47792788	      4.38118775	     -9.12764207	     -1.91217450	     -0.67189383
      0.51683333	      2.16496282	      1.19537464	      2.94278369	     -0.71757337	      1.00670011	      0.27492735	     16.88936049	     -0.06142625	     -1.19598329	     -5.53497364	      0.91795325	    -16.04481459	      9.68295159	    -13.06265279	      1.35284133	      2.79606111	    -20.83713427	     11.39683693	     -9.16810441	     11.60779749	     -9.12301004	     -1.76764297	     -0.56724864
